<mxfile host="65bd71144e" modified="2020-10-16T00:49:29.516Z" agent="5.0 (Windows NT 10.0; Win64; x64) AppleWebKit/537.36 (KHTML, like Gecko) Code/1.50.1 Chrome/83.0.4103.122 Electron/9.2.1 Safari/537.36" etag="0RgoHVMj0FHDdVbMvjuU" version="13.6.5">
    <diagram id="vhmoGNjeol8t_DWCjhTX" name="ページ1">
        <mxGraphModel dx="1419" dy="325" grid="1" gridSize="10" guides="1" tooltips="1" connect="1" arrows="1" fold="1" page="1" pageScale="1" pageWidth="827" pageHeight="1169" math="0" shadow="0">
            <root>
                <mxCell id="0"/>
                <mxCell id="1" parent="0"/>
                <mxCell id="Tq_DCovhUMrowEp1wneQ-32" value="" style="endArrow=classic;html=1;" parent="1" edge="1">
                    <mxGeometry width="50" height="50" relative="1" as="geometry">
                        <mxPoint x="192" y="290" as="sourcePoint"/>
                        <mxPoint x="240" y="290" as="targetPoint"/>
                    </mxGeometry>
                </mxCell>
                <mxCell id="Tq_DCovhUMrowEp1wneQ-36" value="" style="group" parent="1" vertex="1" connectable="0">
                    <mxGeometry x="210" y="240" width="160" height="110" as="geometry"/>
                </mxCell>
                <mxCell id="Tq_DCovhUMrowEp1wneQ-33" value="" style="verticalLabelPosition=bottom;verticalAlign=top;html=1;shape=mxgraph.basic.8_point_star;strokeColor=#000000;strokeWidth=1;" parent="Tq_DCovhUMrowEp1wneQ-36" vertex="1">
                    <mxGeometry width="150" height="100" as="geometry"/>
                </mxCell>
                <mxCell id="Tq_DCovhUMrowEp1wneQ-34" value="&lt;font style=&quot;font-size: 11px&quot;&gt;「サインイン」ボタン&lt;br&gt;を押す&lt;/font&gt;" style="text;strokeColor=none;fillColor=none;html=1;fontSize=24;fontStyle=1;verticalAlign=middle;align=center;" parent="Tq_DCovhUMrowEp1wneQ-36" vertex="1">
                    <mxGeometry x="30" y="35" width="90" height="35" as="geometry"/>
                </mxCell>
                <mxCell id="Tq_DCovhUMrowEp1wneQ-37" value="" style="endArrow=classic;html=1;" parent="Tq_DCovhUMrowEp1wneQ-36" edge="1">
                    <mxGeometry width="50" height="50" relative="1" as="geometry">
                        <mxPoint x="120" y="49.5" as="sourcePoint"/>
                        <mxPoint x="166" y="50" as="targetPoint"/>
                    </mxGeometry>
                </mxCell>
                <mxCell id="Tq_DCovhUMrowEp1wneQ-38" value="ログイン処理をする" style="ellipse;whiteSpace=wrap;html=1;strokeColor=#000000;strokeWidth=1;" parent="1" vertex="1">
                    <mxGeometry x="380" y="250" width="120" height="80" as="geometry"/>
                </mxCell>
                <mxCell id="Tq_DCovhUMrowEp1wneQ-47" value="" style="endArrow=classic;html=1;exitX=1;exitY=0.5;exitDx=0;exitDy=0;" parent="1" source="Tq_DCovhUMrowEp1wneQ-38" target="_kaZG2ATonmXZ8yXgY3t-3" edge="1">
                    <mxGeometry width="50" height="50" relative="1" as="geometry">
                        <mxPoint x="670" y="210" as="sourcePoint"/>
                        <mxPoint x="560" y="295" as="targetPoint"/>
                    </mxGeometry>
                </mxCell>
                <mxCell id="_kaZG2ATonmXZ8yXgY3t-3" value="ID、パスワード認証" style="rounded=1;whiteSpace=wrap;html=1;" parent="1" vertex="1">
                    <mxGeometry x="540" y="272.5" width="130" height="35" as="geometry"/>
                </mxCell>
                <mxCell id="_kaZG2ATonmXZ8yXgY3t-4" value="ログイン認証" style="rhombus;whiteSpace=wrap;html=1;" parent="1" vertex="1">
                    <mxGeometry x="727" y="252.5" width="100" height="75" as="geometry"/>
                </mxCell>
                <mxCell id="_kaZG2ATonmXZ8yXgY3t-7" value="" style="endArrow=classic;html=1;" parent="1" edge="1">
                    <mxGeometry width="50" height="50" relative="1" as="geometry">
                        <mxPoint x="670" y="290" as="sourcePoint"/>
                        <mxPoint x="730" y="290" as="targetPoint"/>
                    </mxGeometry>
                </mxCell>
                <mxCell id="_kaZG2ATonmXZ8yXgY3t-8" value="" style="endArrow=classic;html=1;" parent="1" edge="1">
                    <mxGeometry width="50" height="50" relative="1" as="geometry">
                        <mxPoint x="827" y="290" as="sourcePoint"/>
                        <mxPoint x="940" y="290" as="targetPoint"/>
                    </mxGeometry>
                </mxCell>
                <mxCell id="_kaZG2ATonmXZ8yXgY3t-10" value="YES" style="text;html=1;strokeColor=none;fillColor=none;align=center;verticalAlign=middle;whiteSpace=wrap;rounded=0;" parent="1" vertex="1">
                    <mxGeometry x="830" y="260" width="40" height="20" as="geometry"/>
                </mxCell>
                <mxCell id="_kaZG2ATonmXZ8yXgY3t-13" value="" style="endArrow=classic;html=1;exitX=0.5;exitY=1;exitDx=0;exitDy=0;" parent="1" source="_kaZG2ATonmXZ8yXgY3t-4" edge="1">
                    <mxGeometry width="50" height="50" relative="1" as="geometry">
                        <mxPoint x="700" y="430" as="sourcePoint"/>
                        <mxPoint x="100" y="400" as="targetPoint"/>
                        <Array as="points">
                            <mxPoint x="777" y="470"/>
                            <mxPoint x="100" y="470"/>
                        </Array>
                    </mxGeometry>
                </mxCell>
                <mxCell id="_kaZG2ATonmXZ8yXgY3t-14" value="NO" style="text;html=1;strokeColor=none;fillColor=none;align=center;verticalAlign=middle;whiteSpace=wrap;rounded=0;" parent="1" vertex="1">
                    <mxGeometry x="790" y="340" width="40" height="20" as="geometry"/>
                </mxCell>
                <mxCell id="_kaZG2ATonmXZ8yXgY3t-16" value="" style="endArrow=classic;html=1;exitX=0.19;exitY=0.74;exitDx=0;exitDy=0;exitPerimeter=0;entryX=0.3;entryY=0.025;entryDx=0;entryDy=0;entryPerimeter=0;" parent="1" source="_kaZG2ATonmXZ8yXgY3t-4" edge="1">
                    <mxGeometry width="50" height="50" relative="1" as="geometry">
                        <mxPoint x="700" y="430" as="sourcePoint"/>
                        <mxPoint x="583" y="372" as="targetPoint"/>
                    </mxGeometry>
                </mxCell>
                <mxCell id="_kaZG2ATonmXZ8yXgY3t-18" value="" style="endArrow=classic;html=1;entryX=0.34;entryY=0.9;entryDx=0;entryDy=0;entryPerimeter=0;exitX=0.664;exitY=0.013;exitDx=0;exitDy=0;exitPerimeter=0;" parent="1" target="_kaZG2ATonmXZ8yXgY3t-4" edge="1">
                    <mxGeometry width="50" height="50" relative="1" as="geometry">
                        <mxPoint x="623.04" y="371.03999999999996" as="sourcePoint"/>
                        <mxPoint x="750" y="380" as="targetPoint"/>
                    </mxGeometry>
                </mxCell>
                <mxCell id="2" value="ログイン画面" style="swimlane;fontStyle=0;childLayout=stackLayout;horizontal=1;startSize=26;horizontalStack=0;resizeParent=1;resizeParentMax=0;resizeLast=0;collapsible=1;marginBottom=0;align=center;fontSize=14;" parent="1" vertex="1">
                    <mxGeometry x="-30" y="150" width="220" height="250" as="geometry"/>
                </mxCell>
                <mxCell id="3" value="表示&#10;・ID入力フォーム&#10;・パスワード入力フォーム&#10;・サインインボタン&#10;・「アカウント作成」リンク&#10;・「パスワードを忘れた場合」リンク&#10;入力&#10;・アカウントID&#10;・アカウントパスワード&#10;操作&#10;・サインインボタンを押す&#10;・「アカウント作成」&#10;リンクを押す&#10;・「パスワードを忘れた場合」&#10;リンクを押す" style="text;strokeColor=none;fillColor=none;spacingLeft=4;spacingRight=4;overflow=hidden;rotatable=0;points=[[0,0.5],[1,0.5]];portConstraint=eastwest;fontSize=12;" parent="2" vertex="1">
                    <mxGeometry y="26" width="220" height="224" as="geometry"/>
                </mxCell>
                <mxCell id="4" value="メイン画面" style="swimlane;fontStyle=0;childLayout=stackLayout;horizontal=1;startSize=26;horizontalStack=0;resizeParent=1;resizeParentMax=0;resizeLast=0;collapsible=1;marginBottom=0;align=center;fontSize=14;" parent="1" vertex="1">
                    <mxGeometry x="940" y="150" width="160" height="270" as="geometry"/>
                </mxCell>
                <mxCell id="5" value="表示&#10;・マイページ遷移ボタン&#10;・検索フォーム&#10;・投稿ボタン&#10;・設定ボタン&#10;・カルーセル（スライド）&#10;・カード（各災害のカード）&#10;入力&#10;・検索キーワード&#10;操作&#10;・マイページ遷移ボタン押下&#10;・検索ボタン押下&#10;・投稿ボタン押下&#10;・設定ボタン押下&#10;・カルーセル押下&#10;・カード押下" style="text;strokeColor=none;fillColor=none;spacingLeft=4;spacingRight=4;overflow=hidden;rotatable=0;points=[[0,0.5],[1,0.5]];portConstraint=eastwest;fontSize=12;" parent="4" vertex="1">
                    <mxGeometry y="26" width="160" height="244" as="geometry"/>
                </mxCell>
                <mxCell id="6" value="" style="shape=cylinder2;whiteSpace=wrap;html=1;boundedLbl=1;backgroundOutline=1;size=15;" vertex="1" parent="1">
                    <mxGeometry x="520" y="380" width="90" height="80" as="geometry"/>
                </mxCell>
                <mxCell id="7" value="アカウントテーブル" style="text;html=1;strokeColor=none;fillColor=none;align=center;verticalAlign=middle;whiteSpace=wrap;rounded=0;" vertex="1" parent="1">
                    <mxGeometry x="532.5" y="420" width="65" height="20" as="geometry"/>
                </mxCell>
            </root>
        </mxGraphModel>
    </diagram>
</mxfile>